<svg width="172" height="164" viewBox="0 0 172 164" fill="none" xmlns="http://www.w3.org/2000/svg">
<g clip-path="url(#clip0_2_557)">
<path d="M167.987 92.3504C163.079 107.173 152.503 123.417 136.935 128.708C113.417 136.699 111.314 155.914 68.631 155.784C61.9767 155.766 55.7991 155.07 50.098 153.801C47.0346 153.12 44.1058 152.268 41.3226 151.265C16.0443 142.175 2.19731 120.568 0.221763 97.4786C-2.37956 67.1118 18.3655 51.7889 31.8851 42.7648C45.4047 33.7407 60.8198 0.19917 102.783 -0.000158165C109.179 -0.0291514 115.589 0.597826 121.833 2.02574C136.08 5.28385 150.742 13.141 159.546 25.1116C160.208 26.0104 160.841 26.9345 161.449 27.8732C173.328 46.2875 174.681 72.1422 167.987 92.3504Z" fill="#66CE2C"/>
<path opacity="0.7" d="M167.987 92.3504C163.079 107.173 152.503 123.417 136.935 128.708C113.417 136.699 111.314 155.914 68.631 155.784C61.9767 155.766 55.7991 155.07 50.098 153.801C47.0346 153.12 44.1058 152.268 41.3226 151.265C16.0443 142.175 2.19731 120.568 0.221763 97.4786C-2.37956 67.1118 18.3655 51.7889 31.8851 42.7648C45.4047 33.7407 60.8198 0.19917 102.783 -0.000158165C109.179 -0.0291514 115.589 0.597826 121.833 2.02574C136.08 5.28385 150.742 13.141 159.546 25.1116C160.208 26.0104 160.841 26.9345 161.449 27.8732C173.328 46.2875 174.681 72.1422 167.987 92.3504Z" fill="white"/>
<path d="M5.91209 157.872H168.009" stroke="#263238" stroke-miterlimit="10" stroke-linecap="round" stroke-linejoin="round"/>
<path d="M30.0771 49.5059C30.0771 52.253 28.7855 54.7029 26.7699 56.2794C25.3037 57.4355 23.4446 58.1205 21.4291 58.1205C19.4098 58.1205 17.5507 57.4319 16.0845 56.2794C14.0653 54.7065 12.7774 52.2566 12.7774 49.5059C12.7774 44.7437 16.6484 40.8877 21.4291 40.8877C26.206 40.884 30.0771 44.7437 30.0771 49.5059Z" stroke="#263238" stroke-miterlimit="10" stroke-linecap="round" stroke-linejoin="round"/>
<path d="M23.3244 51.2192C25.0217 50.1743 25.5474 47.9566 24.4985 46.2658C23.4496 44.575 21.2233 44.0514 19.5259 45.0962C17.8286 46.1411 17.3029 48.3588 18.3518 50.0496C19.4007 51.7404 21.627 52.264 23.3244 51.2192Z" stroke="#263238" stroke-miterlimit="10" stroke-linecap="round" stroke-linejoin="round"/>
<path d="M26.7699 56.2758C25.3037 57.4319 23.4446 58.1169 21.429 58.1169C19.4098 58.1169 17.5507 57.4283 16.0845 56.2758C16.6193 53.8295 18.8095 51.9957 21.429 51.9957C24.0413 51.9957 26.2315 53.8295 26.7699 56.2758Z" stroke="#263238" stroke-miterlimit="10" stroke-linecap="round" stroke-linejoin="round"/>
<path d="M163.872 138.533C163.872 141.28 162.581 143.73 160.565 145.307C159.099 146.463 157.24 147.148 155.224 147.148C153.205 147.148 151.346 146.459 149.88 145.307C147.86 143.734 146.573 141.284 146.573 138.533C146.573 133.771 150.444 129.915 155.224 129.915C159.998 129.911 163.872 133.767 163.872 138.533Z" stroke="#263238" stroke-miterlimit="10" stroke-linecap="round" stroke-linejoin="round"/>
<path d="M155.803 140.729C157.772 140.41 159.109 138.561 158.788 136.599C158.468 134.637 156.611 133.306 154.642 133.625C152.673 133.945 151.336 135.794 151.657 137.756C151.977 139.717 153.834 141.049 155.803 140.729Z" stroke="#263238" stroke-miterlimit="10" stroke-linecap="round" stroke-linejoin="round"/>
<path d="M160.561 145.303C159.095 146.459 157.236 147.144 155.221 147.144C153.201 147.144 151.342 146.456 149.876 145.303C150.411 142.857 152.601 141.023 155.221 141.023C157.836 141.023 160.027 142.857 160.561 145.303Z" stroke="#263238" stroke-miterlimit="10" stroke-linecap="round" stroke-linejoin="round"/>
<path d="M10.0997 67.9528L9.65945 67.6882L10.2088 66.9199L9.38658 66.6082L9.56849 66.1371L10.3543 66.5539L10.2707 65.5971H10.8346L10.7436 66.5539L11.5368 66.1371L11.7114 66.6082L10.8892 66.9272L11.4458 67.6882L10.9947 67.9528L10.5472 67.0866L10.0997 67.9528Z" fill="#263238"/>
<path d="M12.872 67.9528L12.4318 67.6882L12.9811 66.9199L12.1589 66.6082L12.3408 66.1371L13.1267 66.5539L13.043 65.5971H13.6069L13.5159 66.5539L14.3091 66.1371L14.4837 66.6082L13.6615 66.9272L14.2181 67.6882L13.767 67.9528L13.3195 67.0866L12.872 67.9528Z" fill="#263238"/>
<path d="M15.6443 67.9528L15.2041 67.6882L15.7534 66.9199L14.9312 66.6082L15.1131 66.1371L15.899 66.5539L15.8153 65.5971H16.3792L16.2883 66.5539L17.0814 66.1371L17.256 66.6082L16.4338 66.9272L16.9904 67.6882L16.5393 67.9528L16.0918 67.0866L15.6443 67.9528Z" fill="#263238"/>
<path d="M18.4166 67.9528L17.9764 67.6882L18.5258 66.9199L17.7035 66.6082L17.8854 66.1371L18.6713 66.5539L18.5876 65.5971H19.1515L19.0606 66.5539L19.8537 66.1371L20.0283 66.6082L19.2061 66.9272L19.7627 67.6882L19.3116 67.9528L18.8641 67.0866L18.4166 67.9528Z" fill="#263238"/>
<path d="M21.1889 67.9528L20.7487 67.6882L21.2981 66.9199L20.4758 66.6082L20.6578 66.1371L21.4436 66.5539L21.3599 65.5971H21.9239L21.8329 66.5539L22.626 66.1371L22.8007 66.6082L21.9784 66.9272L22.5351 67.6882L22.0839 67.9528L21.6364 67.0866L21.1889 67.9528Z" fill="#263238"/>
<path d="M23.9612 67.9528L23.521 67.6882L24.0704 66.9199L23.2482 66.6082L23.4301 66.1371L24.2159 66.5539L24.1322 65.5971H24.6962L24.6052 66.5539L25.3983 66.1371L25.573 66.6082L24.7507 66.9272L25.3074 67.6882L24.8562 67.9528L24.4087 67.0866L23.9612 67.9528Z" fill="#263238"/>
<path d="M26.7299 67.9528L26.2897 67.6882L26.8391 66.9199L26.0168 66.6082L26.1988 66.1371L26.9846 66.5539L26.9009 65.5971H27.4649L27.3739 66.5539L28.167 66.1371L28.3417 66.6082L27.5194 66.9272L28.0761 67.6882L27.6249 67.9528L27.1774 67.0866L26.7299 67.9528Z" fill="#263238"/>
<path d="M29.5022 67.9528L29.062 67.6882L29.6114 66.9199L28.7892 66.6082L28.9711 66.1371L29.7569 66.5539L29.6732 65.5971H30.2372L30.1462 66.5539L30.9393 66.1371L31.114 66.6082L30.2917 66.9272L30.8484 67.6882L30.3972 67.9528L29.9497 67.0866L29.5022 67.9528Z" fill="#263238"/>
<path d="M32.2746 67.9528L31.8343 67.6882L32.3837 66.9199L31.5615 66.6082L31.7434 66.1371L32.5292 66.5539L32.4455 65.5971H33.0095L32.9185 66.5539L33.7116 66.1371L33.8863 66.6082L33.064 66.9272L33.6207 67.6882L33.1696 67.9528L32.7221 67.0866L32.2746 67.9528Z" fill="#263238"/>
<path d="M57.0289 8.89004L56.5887 8.62547L57.1381 7.85715L56.3158 7.54548L56.4978 7.07434L57.2836 7.49112L57.1999 6.53434H57.7639L57.6729 7.49112L58.466 7.07434L58.6407 7.54548L57.8184 7.8644L58.3751 8.62547L57.9239 8.89004L57.4764 8.02386L57.0289 8.89004Z" fill="#263238"/>
<path d="M59.8013 8.89004L59.361 8.62547L59.9104 7.85715L59.0882 7.54548L59.2701 7.07434L60.0559 7.49112L59.9722 6.53434H60.5362L60.4452 7.49112L61.2383 7.07434L61.413 7.54548L60.5907 7.8644L61.1474 8.62547L60.6963 8.89004L60.2488 8.02386L59.8013 8.89004Z" fill="#263238"/>
<path d="M62.5736 8.89004L62.1333 8.62547L62.6827 7.85715L61.8605 7.54548L62.0424 7.07434L62.8282 7.49112L62.7446 6.53434H63.3085L63.2175 7.49112L64.0107 7.07434L64.1853 7.54548L63.3631 7.8644L63.9197 8.62547L63.4686 8.89004L63.0211 8.02386L62.5736 8.89004Z" fill="#263238"/>
<path d="M65.3422 8.89004L64.902 8.62547L65.4514 7.85715L64.6292 7.54548L64.8111 7.07434L65.5969 7.49112L65.5132 6.53434H66.0772L65.9862 7.49112L66.7793 7.07434L66.954 7.54548L66.1317 7.8644L66.6884 8.62547L66.2372 8.89004L65.7897 8.02386L65.3422 8.89004Z" fill="#263238"/>
<path d="M68.1146 8.89004L67.6743 8.62547L68.2237 7.85715L67.4015 7.54548L67.5834 7.07434L68.3692 7.49112L68.2856 6.53434H68.8495L68.7622 7.48749L69.5553 7.07071L69.7299 7.54185L68.9077 7.86078L69.4643 8.62185L69.0132 8.88641L68.5657 8.02024L68.1146 8.89004Z" fill="#263238"/>
<path d="M70.8869 8.89004L70.4466 8.62547L70.996 7.85715L70.1738 7.54548L70.3557 7.07434L71.1415 7.49112L71.0579 6.53434H71.6218L71.5308 7.49112L72.324 7.07434L72.4986 7.54548L71.6764 7.8644L72.233 8.62547L71.7819 8.89004L71.3344 8.02386L70.8869 8.89004Z" fill="#263238"/>
<path d="M73.6592 8.89004L73.219 8.62547L73.7683 7.85715L72.9461 7.54548L73.128 7.07434L73.9139 7.49112L73.8302 6.53434H74.3941L74.3032 7.49112L75.0963 7.07434L75.2709 7.54548L74.4487 7.8644L75.0053 8.62547L74.5542 8.89004L74.1067 8.02386L73.6592 8.89004Z" fill="#263238"/>
<path d="M76.4315 8.89004L75.9913 8.62547L76.5407 7.85715L75.7184 7.54548L75.9003 7.07434L76.6862 7.49112L76.6025 6.53434H77.1664L77.0755 7.49112L77.8686 7.07434L78.0432 7.54548L77.221 7.8644L77.7776 8.62547L77.3265 8.89004L76.879 8.02386L76.4315 8.89004Z" fill="#263238"/>
<path d="M79.2038 8.89004L78.7636 8.62547L79.313 7.85715L78.4907 7.54548L78.6726 7.07434L79.4585 7.49112L79.3748 6.53434H79.9387L79.8478 7.49112L80.6409 7.07434L80.8156 7.54548L79.9933 7.8644L80.55 8.62547L80.0988 8.89004L79.6513 8.02386L79.2038 8.89004Z" fill="#263238"/>
<path d="M141.81 45.1207L141.37 44.8561L141.919 44.0878L141.097 43.7761L141.279 43.305L142.065 43.7217L141.981 42.765H142.545L142.454 43.7217L143.247 43.305L143.422 43.7761L142.6 44.095L143.156 44.8561L142.705 45.1207L142.258 44.2545L141.81 45.1207Z" fill="#263238"/>
<path d="M144.582 45.1207L144.142 44.8561L144.692 44.0878L143.869 43.7761L144.051 43.305L144.837 43.7217L144.753 42.765H145.317L145.226 43.7217L146.02 43.305L146.194 43.7761L145.372 44.095L145.929 44.8561L145.477 45.1207L145.03 44.2545L144.582 45.1207Z" fill="#263238"/>
<path d="M147.351 45.1207L146.911 44.8561L147.46 44.0878L146.638 43.7761L146.82 43.305L147.606 43.7217L147.522 42.765H148.086L147.995 43.7217L148.788 43.305L148.963 43.7761L148.141 44.095L148.697 44.8561L148.246 45.1207L147.799 44.2545L147.351 45.1207Z" fill="#263238"/>
<path d="M150.123 45.1207L149.683 44.8561L150.233 44.0878L149.41 43.7761L149.592 43.305L150.378 43.7217L150.294 42.765H150.858L150.767 43.7217L151.561 43.305L151.735 43.7761L150.913 44.095L151.47 44.8561L151.018 45.1207L150.571 44.2545L150.123 45.1207Z" fill="#263238"/>
<path d="M152.896 45.1207L152.456 44.8561L153.005 44.0878L152.183 43.7761L152.365 43.305L153.15 43.7217L153.067 42.765H153.631L153.54 43.7217L154.333 43.305L154.507 43.7761L153.685 44.095L154.242 44.8561L153.791 45.1207L153.343 44.2545L152.896 45.1207Z" fill="#263238"/>
<path d="M155.668 45.1207L155.228 44.8561L155.777 44.0878L154.955 43.7761L155.137 43.305L155.923 43.7217L155.839 42.765H156.403L156.312 43.7217L157.105 43.305L157.28 43.7761L156.458 44.095L157.014 44.8561L156.563 45.1207L156.116 44.2545L155.668 45.1207Z" fill="#263238"/>
<path d="M158.44 45.1207L158 44.8561L158.55 44.0878L157.727 43.7761L157.909 43.305L158.695 43.7217L158.611 42.765H159.175L159.084 43.7217L159.877 43.305L160.052 43.7761L159.23 44.095L159.787 44.8561L159.335 45.1207L158.888 44.2545L158.44 45.1207Z" fill="#263238"/>
<path d="M161.213 45.1207L160.772 44.8561L161.322 44.0878L160.5 43.7761L160.682 43.305L161.467 43.7217L161.384 42.765H161.948L161.857 43.7217L162.65 43.305L162.824 43.7761L162.002 44.095L162.559 44.8561L162.108 45.1207L161.66 44.2545L161.213 45.1207Z" fill="#263238"/>
<path d="M163.985 45.1207L163.545 44.8561L164.094 44.0878L163.272 43.7761L163.454 43.305L164.24 43.7217L164.156 42.765H164.72L164.629 43.7217L165.422 43.305L165.597 43.7761L164.775 44.095L165.331 44.8561L164.88 45.1207L164.433 44.2545L163.985 45.1207Z" fill="#263238"/>
<path d="M160.34 22.9662H146.092V36.8503H160.34V22.9662Z" stroke="#263238" stroke-miterlimit="10" stroke-linecap="round" stroke-linejoin="round"/>
<path d="M148.705 22.9735V19.777C148.705 17.3017 150.727 15.2867 153.212 15.2867C155.697 15.2867 157.72 17.3017 157.72 19.777V22.9735H159.794V19.777C159.794 16.1601 156.84 13.2209 153.212 13.2209C149.581 13.2209 146.631 16.1637 146.631 19.777V22.9735H148.705Z" stroke="#263238" stroke-miterlimit="10"/>
<path d="M154.853 28.3517C154.853 27.4493 154.118 26.7172 153.212 26.7172C152.306 26.7172 151.571 27.4493 151.571 28.3517C151.571 29.0439 152.004 29.631 152.616 29.8702V33.103H153.809V29.8702C154.42 29.631 154.853 29.0439 154.853 28.3517Z" stroke="#263238" stroke-miterlimit="10" stroke-linecap="round" stroke-linejoin="round"/>
<path d="M28.2325 137.486H13.9853V151.37H28.2325V137.486Z" stroke="#263238" stroke-miterlimit="10" stroke-linecap="round" stroke-linejoin="round"/>
<path d="M16.6012 137.489V134.293C16.6012 131.818 18.624 129.803 21.1089 129.803C23.5938 129.803 25.6166 131.818 25.6166 134.293V137.489H27.6904V134.293C27.6904 130.676 24.7362 127.737 21.1089 127.737C17.478 127.737 14.5274 130.68 14.5274 134.293V137.489H16.6012Z" stroke="#263238" stroke-miterlimit="10"/>
<path d="M22.7497 142.868C22.7497 141.965 22.0148 141.233 21.1089 141.233C20.203 141.233 19.468 141.965 19.468 142.868C19.468 143.56 19.901 144.147 20.5122 144.386V147.619H21.7055V144.386C22.3168 144.147 22.7497 143.56 22.7497 142.868Z" stroke="#263238" stroke-miterlimit="10" stroke-linecap="round" stroke-linejoin="round"/>
<path d="M9.28835 119.608C10.5726 118.912 12.5227 116.288 12.5227 116.288C12.5446 116.259 10.398 115.534 10.2561 115.502C8.6262 115.15 5.27177 115.422 4.33675 117.031C3.66368 118.191 4.26035 119.586 5.43549 120.115C6.6361 120.655 8.19325 120.202 9.28835 119.608Z" fill="#919191"/>
<path d="M17.4743 124.511C18.4857 123.54 19.61 120.724 19.6973 120.499C21.2726 121.137 22.9426 121.663 24.6598 122.101C25.6421 122.355 26.639 122.576 27.6395 122.79C27.1665 122.761 26.7445 122.739 26.6863 122.743C25.0236 122.83 21.8584 123.975 21.3818 125.772C21.0361 127.066 21.9857 128.259 23.2591 128.458C24.5616 128.665 25.9441 127.816 26.8391 126.958C27.7486 126.084 28.7528 123.703 29.0111 123.069C29.3967 123.145 29.7788 123.228 30.1644 123.304C32.0163 123.667 33.8645 124.022 35.6654 124.424C36.3021 124.566 36.9206 124.729 37.5427 124.888C37.1243 124.863 36.7714 124.845 36.7168 124.848C35.0542 124.935 31.8889 126.081 31.4123 127.878C31.0703 129.172 32.0163 130.364 33.2896 130.564C34.5921 130.77 35.9746 129.922 36.8696 129.063C37.7392 128.23 38.6851 126.041 38.9943 125.287C39.6237 125.472 40.2568 125.653 40.8607 125.859C41.2682 126.008 41.6721 126.124 42.0759 126.298C42.4761 126.461 42.8763 126.624 43.2692 126.784C44.0151 127.121 44.79 127.461 45.5104 127.809C46.0124 128.045 46.489 128.28 46.9657 128.516C46.3362 128.367 45.0956 128.103 44.9865 128.092C43.3274 127.929 40.0276 128.581 39.2818 130.288C38.7469 131.517 39.5 132.836 40.7298 133.227C41.9849 133.626 43.4803 132.999 44.4953 132.285C45.6159 131.499 47.1039 128.991 47.2895 128.679C48.0826 129.07 48.8466 129.462 49.5633 129.839C51.1496 130.672 52.543 131.452 53.7073 132.129L54.4567 131.165C53.2306 130.487 51.7572 129.697 50.0654 128.857C49.265 128.454 48.3991 128.041 47.5077 127.624C47.5732 127.4 47.9371 126.12 48.1226 124.885C49.5233 124.765 51.9827 123.58 52.2993 123.424C52.7431 124.185 53.1652 124.932 53.5545 125.642C54.3694 127.124 55.0679 128.476 55.6464 129.639L56.4577 128.599C55.9011 127.556 55.2571 126.378 54.5186 125.106C54.0711 124.33 53.5799 123.511 53.0669 122.67C53.3398 122.438 55.5627 120.536 56.1449 119.296C56.6724 118.173 57.0326 116.596 56.4177 115.436C55.8174 114.302 54.3803 113.791 53.2598 114.53C51.7062 115.56 51.6371 118.912 52.0919 120.507C52.1174 120.601 52.5212 121.59 52.7868 122.21C52.5758 121.869 52.372 121.536 52.1501 121.188C51.7172 120.496 51.2624 119.818 50.7749 119.086C50.5275 118.742 50.2764 118.394 50.0254 118.042C49.7816 117.687 49.4797 117.346 49.2068 116.991C48.5556 116.183 47.857 115.4 47.1366 114.625C47.7442 114.244 49.8799 112.86 50.5784 111.827C51.2697 110.797 51.8663 109.293 51.4334 108.054C51.0113 106.84 49.6688 106.119 48.45 106.684C46.7583 107.467 46.1798 110.768 46.3835 112.417C46.3945 112.519 46.6746 113.686 46.842 114.324C46.4054 113.86 45.9688 113.396 45.514 112.943C44.1933 111.631 42.8145 110.348 41.4465 109.058C41.0281 108.663 40.6133 108.264 40.1986 107.869C40.4169 107.735 42.9927 106.148 43.7713 104.988C44.4626 103.959 45.0592 102.455 44.6263 101.215C44.2043 100.001 42.8618 99.2799 41.643 99.8453C39.9512 100.628 39.3727 103.93 39.5765 105.579C39.591 105.702 39.9985 107.38 40.1222 107.8C39.209 106.927 38.3067 106.046 37.4517 105.144C36.2693 103.901 35.1815 102.611 34.2174 101.288C34.3192 101.226 37.0152 99.5807 37.8119 98.392C38.5032 97.3628 39.0998 95.8587 38.6669 94.6193C38.2449 93.4052 36.9024 92.684 35.6836 93.2494C33.9918 94.0322 33.4133 97.3338 33.6171 98.9828C33.6316 99.1132 34.0718 100.914 34.1737 101.237C34.1155 101.157 34.05 101.081 33.9918 101.001C32.9804 99.5735 32.1836 98.0659 31.5033 96.6162C31.1067 95.7754 30.7756 94.9491 30.4737 94.1373C31.0085 93.8836 33.4352 92.6876 34.2719 91.6982C35.0723 90.7487 35.8291 89.3208 35.538 88.0415C35.2506 86.7875 33.9991 85.925 32.7221 86.3526C30.9539 86.947 30.0152 90.1652 30.0371 91.8251C30.0371 91.9157 30.1535 92.8326 30.2444 93.4958C30.1135 93.1261 29.9716 92.7492 29.8515 92.3941C29.4004 91.0604 29.0729 89.8137 28.7892 88.7083C28.6327 88.0777 28.5054 87.5051 28.389 86.9651C28.7819 86.4432 30.3354 84.3158 30.6155 83.0764C30.8884 81.8659 30.8993 80.2495 30.048 79.2493C29.2148 78.2671 27.7013 78.0787 26.77 79.0427C25.4748 80.38 26.1296 83.6671 26.9191 85.1313C26.9882 85.2581 28.2798 87.1137 28.298 87.0847C28.298 87.0847 28.3162 87.0593 28.3235 87.0521C28.4217 87.5703 28.5345 88.1284 28.6727 88.7337C28.931 89.8499 29.2367 91.1075 29.6587 92.4557C30.0771 93.8039 30.5719 95.2535 31.2304 96.7394C31.8889 98.2253 32.6566 99.7583 33.6534 101.233C33.6644 101.251 33.6789 101.266 33.6898 101.284C33.2642 100.943 32.0417 100.027 31.9398 99.9685C30.5028 99.1277 27.232 98.3449 25.8386 99.5807C24.8344 100.472 24.9654 101.984 25.9186 102.853C26.89 103.741 28.5127 103.792 29.7351 103.567C31.114 103.314 33.6134 101.581 33.8099 101.444C34.7704 102.839 35.8728 104.194 37.0624 105.506C37.7428 106.256 38.4486 106.992 39.169 107.717C38.7906 107.434 38.4522 107.184 38.4013 107.152C36.9642 106.311 33.6935 105.528 32.3 106.764C31.2959 107.655 31.4269 109.17 32.3801 110.036C33.3515 110.924 34.9741 110.975 36.1966 110.754C37.4372 110.526 39.5983 109.091 40.1622 108.703C40.4423 108.978 40.7152 109.257 40.9954 109.533C42.3379 110.852 43.684 112.164 44.961 113.49C45.4121 113.958 45.8378 114.433 46.2671 114.911C45.9324 114.661 45.645 114.451 45.6013 114.425C44.1642 113.584 40.8935 112.802 39.5 114.037C38.4959 114.929 38.6269 116.444 39.5801 117.31C40.5515 118.198 42.1741 118.249 43.3966 118.024C44.5826 117.807 46.5873 116.502 47.2603 116.042C47.686 116.542 48.1117 117.042 48.501 117.546C48.7593 117.897 49.0322 118.216 49.2686 118.579C49.5124 118.934 49.7562 119.289 49.9963 119.64C50.4329 120.333 50.8876 121.043 51.2988 121.728C51.5862 122.203 51.8518 122.659 52.121 123.12C51.6771 122.648 50.7894 121.746 50.7057 121.681C49.8471 120.985 48.1845 120.195 46.7037 120.039C46.5764 119.934 46.4418 119.843 46.2999 119.764C45.1684 119.148 43.6876 119.51 43.1637 120.746C42.4361 122.456 44.237 125.29 45.4995 126.374C45.5722 126.439 46.4599 127.041 47.0239 127.414C46.6564 127.248 46.3035 127.077 45.9288 126.91C45.1829 126.573 44.4298 126.258 43.6185 125.914C43.2219 125.762 42.8217 125.609 42.4143 125.454C42.0177 125.29 41.5738 125.171 41.1518 125.026C40.1622 124.711 39.1435 124.439 38.1139 124.189C38.4086 123.536 39.4273 121.21 39.4346 119.963C39.4418 118.724 39.1035 117.143 38.0593 116.346C37.0333 115.567 35.5162 115.701 34.8104 116.843C33.8317 118.426 35.1815 121.496 36.262 122.761C36.3312 122.841 37.208 123.656 37.6991 124.098C37.077 123.953 36.4585 123.805 35.8255 123.678C33.9991 123.312 32.1363 122.996 30.2808 122.674C29.7133 122.576 29.1457 122.471 28.5818 122.369C28.6909 122.137 29.957 119.398 29.9643 118.002C29.9716 116.763 29.6332 115.183 28.5891 114.385C27.5631 113.606 26.0459 113.74 25.3401 114.882C24.3615 116.466 25.7076 119.535 26.7918 120.797C26.8718 120.891 28.1416 122.069 28.4763 122.351C27.2284 122.123 25.9877 121.887 24.7762 121.601C23.1026 121.21 21.48 120.739 19.9447 120.162C19.9956 120.054 21.3308 117.198 21.3417 115.77C21.349 114.53 21.0107 112.95 19.9665 112.153C18.9405 111.374 17.4234 111.508 16.7176 112.649C15.7389 114.233 17.0887 117.303 18.1692 118.564C18.2529 118.662 19.6172 119.927 19.8828 120.137C19.7919 120.104 19.6936 120.079 19.6027 120.043C17.9691 119.408 16.4665 118.589 15.0986 117.752C14.3018 117.267 13.5705 116.763 12.8684 116.252C13.1703 115.744 14.5347 113.414 14.6838 112.131C14.8257 110.899 14.6656 109.29 13.7161 108.384C12.7847 107.496 11.2603 107.467 10.4344 108.522C9.28836 109.989 10.2889 113.189 11.2239 114.559C11.2748 114.635 11.8788 115.335 12.3226 115.839C12.0097 115.603 11.6823 115.368 11.384 115.136C10.2707 114.273 9.30291 113.414 8.45521 112.646C7.97496 112.204 7.54929 111.798 7.15636 111.41C7.19275 110.758 7.31281 108.13 6.86167 106.941C6.41781 105.782 5.53372 104.43 4.26763 104.06C3.03063 103.701 1.66267 104.372 1.41891 105.691C1.08055 107.518 3.44903 109.899 4.91523 110.689C5.04256 110.758 7.14545 111.595 7.14909 111.562C7.14909 111.562 7.15273 111.53 7.15273 111.522C7.52382 111.903 7.92767 112.302 8.37517 112.733C9.20832 113.519 10.1579 114.404 11.2566 115.295C12.3517 116.19 13.5669 117.129 14.9385 118.002C16.3101 118.879 17.7981 119.735 19.4462 120.42C19.4644 120.427 19.4863 120.434 19.5044 120.441C18.9587 120.391 17.4343 120.3 17.3142 120.307C15.6516 120.394 12.4863 121.539 12.0097 123.337C11.6677 124.631 12.6137 125.823 13.8871 126.023C15.1968 126.218 16.5793 125.37 17.4743 124.511Z" fill="#919191"/>
<path d="M30.168 93.9778C30.2008 93.9669 28.8146 92.1802 28.7128 92.0751C27.5485 90.8864 24.6016 89.27 22.928 90.0964C21.7238 90.6907 21.4509 92.1875 22.1385 93.2747C22.8407 94.3837 24.3906 94.8621 25.6312 94.9708C27.0865 95.094 30.1644 93.9778 30.168 93.9778Z" fill="#919191"/>
<path d="M162.348 119.608C161.064 118.912 159.113 116.288 159.113 116.288C159.092 116.259 161.238 115.534 161.38 115.502C163.01 115.15 166.364 115.422 167.299 117.031C167.973 118.191 167.376 119.586 166.201 120.115C164.996 120.655 163.439 120.202 162.348 119.608Z" fill="#919191"/>
<path d="M154.158 124.511C153.147 123.54 152.023 120.724 151.935 120.499C150.36 121.137 148.69 121.663 146.973 122.101C145.99 122.355 144.994 122.576 143.993 122.79C144.466 122.761 144.888 122.739 144.946 122.743C146.609 122.83 149.774 123.975 150.251 125.772C150.596 127.066 149.647 128.259 148.373 128.458C147.071 128.665 145.688 127.816 144.793 126.958C143.884 126.084 142.88 123.703 142.621 123.069C142.236 123.145 141.854 123.228 141.468 123.304C139.616 123.667 137.768 124.022 135.967 124.424C135.33 124.566 134.712 124.729 134.09 124.888C134.508 124.863 134.861 124.845 134.916 124.848C136.578 124.935 139.744 126.081 140.22 127.878C140.562 129.172 139.616 130.364 138.343 130.564C137.04 130.77 135.658 129.922 134.763 129.063C133.893 128.23 132.947 126.041 132.638 125.287C132.009 125.472 131.376 125.653 130.772 125.859C130.364 126.008 129.96 126.124 129.557 126.298C129.156 126.461 128.756 126.624 128.363 126.784C127.617 127.121 126.843 127.461 126.122 127.809C125.62 128.045 125.143 128.28 124.663 128.516C125.293 128.367 126.533 128.103 126.642 128.092C128.301 127.929 131.601 128.581 132.347 130.288C132.882 131.517 132.129 132.836 130.899 133.227C129.644 133.626 128.149 132.999 127.134 132.285C126.013 131.499 124.525 128.991 124.339 128.679C123.546 129.07 122.782 129.462 122.066 129.839C120.479 130.672 119.086 131.452 117.922 132.129L117.172 131.165C118.398 130.487 119.872 129.697 121.563 128.857C122.364 128.454 123.23 128.041 124.121 127.624C124.056 127.4 123.692 126.12 123.506 124.885C122.106 124.765 119.646 123.58 119.33 123.424C118.886 124.185 118.464 124.932 118.074 125.642C117.259 127.124 116.561 128.476 115.982 129.639L115.171 128.599C115.728 127.556 116.372 126.378 117.11 125.106C117.558 124.33 118.049 123.511 118.562 122.67C118.289 122.438 116.066 120.536 115.484 119.296C114.957 118.173 114.596 116.596 115.211 115.436C115.811 114.302 117.249 113.791 118.369 114.53C119.923 115.56 119.992 118.912 119.537 120.507C119.512 120.601 119.108 121.59 118.842 122.21C119.053 121.869 119.257 121.536 119.479 121.188C119.912 120.496 120.367 119.818 120.854 119.086C121.101 118.742 121.352 118.394 121.604 118.042C121.847 117.687 122.149 117.346 122.422 116.991C123.073 116.183 123.772 115.4 124.492 114.625C123.885 114.244 121.749 112.86 121.051 111.827C120.359 110.797 119.763 109.293 120.196 108.054C120.618 106.84 121.96 106.119 123.179 106.684C124.871 107.467 125.449 110.768 125.245 112.417C125.234 112.519 124.954 113.686 124.787 114.324C125.224 113.86 125.66 113.396 126.115 112.943C127.436 111.631 128.814 110.348 130.182 109.058C130.601 108.663 131.016 108.264 131.43 107.869C131.212 107.735 128.636 106.148 127.858 104.988C127.166 103.959 126.57 102.455 127.003 101.215C127.425 100.001 128.767 99.2799 129.986 99.8453C131.678 100.628 132.256 103.93 132.052 105.579C132.038 105.702 131.63 107.38 131.507 107.8C132.42 106.927 133.322 106.046 134.177 105.144C135.36 103.901 136.447 102.611 137.412 101.288C137.31 101.226 134.614 99.5807 133.817 98.392C133.126 97.3628 132.529 95.8587 132.962 94.6193C133.384 93.4052 134.727 92.684 135.945 93.2494C137.637 94.0322 138.216 97.3338 138.012 98.9828C137.997 99.1132 137.557 100.914 137.455 101.237C137.513 101.157 137.579 101.081 137.637 101.001C138.649 99.5735 139.445 98.0659 140.126 96.6162C140.522 95.7754 140.853 94.9491 141.155 94.1373C140.62 93.8836 138.194 92.6876 137.357 91.6982C136.557 90.7487 135.8 89.3208 136.091 88.0415C136.378 86.7875 137.63 85.925 138.907 86.3526C140.675 86.947 141.614 90.1652 141.592 91.8251C141.592 91.9157 141.475 92.8326 141.384 93.4958C141.515 93.1261 141.657 92.7492 141.777 92.3941C142.229 91.0604 142.556 89.8137 142.84 88.7083C142.996 88.0777 143.124 87.5051 143.24 86.9651C142.847 86.4432 141.294 84.3158 141.013 83.0764C140.74 81.8659 140.73 80.2495 141.581 79.2493C142.414 78.2671 143.928 78.0787 144.859 79.0427C146.154 80.38 145.499 83.6671 144.71 85.1313C144.641 85.2581 143.349 87.1137 143.331 87.0847C143.331 87.0847 143.313 87.0593 143.305 87.0521C143.207 87.5703 143.094 88.1284 142.956 88.7337C142.698 89.8499 142.392 91.1075 141.97 92.4557C141.552 93.8039 141.057 95.2535 140.399 96.7394C139.74 98.2253 138.972 99.7583 137.975 101.233C137.965 101.251 137.95 101.266 137.939 101.284C138.365 100.943 139.587 100.027 139.689 99.9685C141.126 99.1277 144.397 98.3449 145.79 99.5807C146.794 100.472 146.663 101.984 145.71 102.853C144.739 103.741 143.116 103.792 141.894 103.567C140.515 103.314 138.015 101.581 137.819 101.444C136.859 102.839 135.756 104.194 134.566 105.506C133.886 106.256 133.18 106.992 132.46 107.717C132.838 107.434 133.177 107.184 133.228 107.152C134.665 106.311 137.935 105.528 139.329 106.764C140.333 107.655 140.202 109.17 139.249 110.036C138.277 110.924 136.655 110.975 135.432 110.754C134.192 110.526 132.031 109.091 131.467 108.703C131.187 108.978 130.914 109.257 130.634 109.533C129.291 110.852 127.945 112.164 126.668 113.49C126.217 113.958 125.791 114.433 125.362 114.911C125.697 114.661 125.984 114.451 126.028 114.425C127.465 113.584 130.735 112.802 132.129 114.037C133.133 114.929 133.002 116.444 132.049 117.31C131.077 118.198 129.455 118.249 128.232 118.024C127.046 117.807 125.042 116.502 124.369 116.042C123.943 116.542 123.517 117.042 123.128 117.546C122.87 117.897 122.597 118.216 122.36 118.579C122.117 118.934 121.873 119.289 121.633 119.64C121.196 120.333 120.741 121.043 120.33 121.728C120.043 122.203 119.777 122.659 119.508 123.12C119.952 122.648 120.839 121.746 120.923 121.681C121.782 120.985 123.444 120.195 124.925 120.039C125.053 119.934 125.187 119.843 125.329 119.764C126.461 119.148 127.941 119.51 128.465 120.746C129.193 122.456 127.392 125.29 126.129 126.374C126.057 126.439 125.169 127.041 124.605 127.414C124.972 127.248 125.322 127.077 125.7 126.91C126.446 126.573 127.199 126.258 128.01 125.914C128.407 125.762 128.807 125.609 129.215 125.454C129.611 125.29 130.055 125.171 130.477 125.026C131.467 124.711 132.485 124.439 133.515 124.189C133.22 123.536 132.202 121.21 132.194 119.963C132.187 118.724 132.525 117.143 133.57 116.346C134.596 115.567 136.113 115.701 136.819 116.843C137.797 118.426 136.447 121.496 135.367 122.761C135.298 122.841 134.421 123.656 133.93 124.098C134.552 123.953 135.17 123.805 135.803 123.678C137.63 123.312 139.493 122.996 141.348 122.674C141.916 122.576 142.483 122.471 143.047 122.369C142.938 122.137 141.672 119.398 141.665 118.002C141.657 116.763 141.996 115.183 143.04 114.385C144.066 113.606 145.583 113.74 146.289 114.882C147.267 116.466 145.921 119.535 144.837 120.797C144.757 120.891 143.487 122.069 143.153 122.351C144.401 122.123 145.641 121.887 146.853 121.601C148.526 121.21 150.149 120.739 151.684 120.162C151.633 120.054 150.298 117.198 150.287 115.77C150.28 114.53 150.618 112.95 151.662 112.153C152.688 111.374 154.206 111.508 154.911 112.649C155.89 114.233 154.54 117.303 153.46 118.564C153.376 118.662 152.012 119.927 151.746 120.137C151.837 120.104 151.935 120.079 152.026 120.043C153.66 119.408 155.162 118.589 156.53 117.752C157.327 117.267 158.058 116.763 158.761 116.252C158.459 115.744 157.094 113.414 156.945 112.131C156.803 110.899 156.963 109.29 157.913 108.384C158.844 107.496 160.369 107.467 161.195 108.522C162.341 109.989 161.34 113.189 160.405 114.559C160.354 114.635 159.75 115.335 159.306 115.839C159.619 115.603 159.947 115.368 160.245 115.136C161.358 114.273 162.326 113.414 163.174 112.646C163.654 112.204 164.08 111.798 164.473 111.41C164.436 110.758 164.316 108.13 164.767 106.941C165.211 105.782 166.095 104.43 167.361 104.06C168.598 103.701 169.966 104.372 170.21 105.691C170.548 107.518 168.18 109.899 166.714 110.689C166.586 110.758 164.483 111.595 164.48 111.562C164.48 111.562 164.476 111.53 164.476 111.522C164.105 111.903 163.701 112.302 163.254 112.733C162.421 113.519 161.471 114.404 160.372 115.295C159.277 116.19 158.062 117.129 156.69 118.002C155.319 118.879 153.831 119.735 152.183 120.42C152.164 120.427 152.143 120.434 152.124 120.441C152.67 120.391 154.195 120.3 154.315 120.307C155.977 120.394 159.143 121.539 159.619 123.337C159.961 124.631 159.015 125.823 157.742 126.023C156.439 126.218 155.057 125.37 154.158 124.511Z" fill="#919191"/>
<path d="M141.468 93.9778C141.435 93.9669 142.822 92.1802 142.923 92.0751C144.088 90.8864 147.035 89.27 148.708 90.0964C149.912 90.6907 150.185 92.1875 149.498 93.2747C148.796 94.3837 147.246 94.8621 146.005 94.9708C144.55 95.094 141.468 93.9778 141.468 93.9778Z" fill="#919191"/>
<path d="M103.798 14.6814C102.634 15.5621 99.4323 16.2543 99.4286 16.2543C99.3959 16.2616 99.6105 14.0146 99.6396 13.8732C99.9853 12.2496 101.612 9.31407 103.467 9.12561C104.806 8.98789 105.836 10.1078 105.839 11.3907C105.843 12.7063 104.791 13.9349 103.798 14.6814Z" fill="#919191"/>
<path d="M104.926 24.1332C103.623 24.6551 100.582 24.5174 100.342 24.5029C100.276 26.1954 100.073 27.9277 99.7706 29.6673C99.5996 30.6639 99.3922 31.6606 99.174 32.6572C99.3413 32.2151 99.4941 31.8237 99.5232 31.7729C100.287 30.2979 102.634 27.8951 104.475 28.1995C105.803 28.4206 106.501 29.7688 106.163 31.0082C105.817 32.2731 104.475 33.1827 103.318 33.643C102.146 34.1105 99.5523 34.0453 98.8647 34.0199C98.7774 34.4004 98.6937 34.7846 98.6064 35.1651C98.1807 36.9953 97.7441 38.8183 97.373 40.6231C97.2421 41.2573 97.1366 41.8879 97.0274 42.5185C97.1766 42.1271 97.3039 41.7973 97.3294 41.7502C98.0934 40.2752 100.44 37.8724 102.281 38.1768C103.609 38.3979 104.307 39.746 103.969 40.9855C103.623 42.2503 102.281 43.16 101.124 43.6203C100.007 44.066 97.6095 44.0298 96.7946 44.0008C96.7036 44.6495 96.6127 45.2982 96.5508 45.9325C96.5217 46.3637 96.4598 46.7805 96.4562 47.2154C96.4417 47.6467 96.4271 48.0743 96.4126 48.4984C96.4126 49.3138 96.4089 50.1582 96.4307 50.9555C96.4417 51.51 96.4635 52.0392 96.4817 52.5683C96.6054 51.9341 96.871 50.6982 96.9073 50.5967C97.4385 49.0239 99.3922 46.2949 101.259 46.3166C102.601 46.3348 103.5 47.5633 103.354 48.839C103.205 50.1437 102.015 51.2418 100.946 51.8724C99.767 52.5683 96.8601 52.8908 96.4962 52.9271C96.529 53.8077 96.5726 54.663 96.6236 55.4712C96.7363 57.2543 96.8782 58.8381 97.0201 60.179L95.8304 60.4653C95.714 59.0736 95.5976 57.4101 95.5212 55.5292C95.4812 54.6341 95.4593 53.6809 95.4448 52.6988C95.2119 52.6661 93.8913 52.4704 92.6834 52.1334C91.9994 53.3584 89.9038 55.1016 89.6309 55.3263C90.1476 56.0402 90.6569 56.7324 91.1481 57.3775C92.1704 58.7257 93.12 59.9144 93.9458 60.9183L92.6616 61.2264C91.9339 60.2913 91.1226 59.2222 90.2567 58.0299C89.7292 57.305 89.1798 56.5222 88.6268 55.7104C88.303 55.8626 85.6471 57.0985 84.2755 57.1202C83.0312 57.1383 81.4413 56.8158 80.63 55.7829C79.8369 54.7681 79.9606 53.2569 81.0993 52.5429C82.6783 51.5535 85.7744 52.8691 87.0514 53.9346C87.1278 53.9962 87.8664 54.7718 88.3248 55.2683C88.0992 54.9349 87.8773 54.6159 87.6481 54.2716C87.1933 53.5939 86.7604 52.9017 86.291 52.1588C86.0764 51.7927 85.8617 51.4231 85.6434 51.0498C85.4179 50.6837 85.2287 50.2706 85.0177 49.8755C84.5483 48.955 84.1154 47.9982 83.7006 47.0233C83.104 47.4184 80.9574 48.7919 79.7277 48.9985C78.5016 49.2051 76.879 49.1253 75.9222 48.2266C74.9835 47.3459 74.8744 45.8274 75.893 44.954C77.3047 43.7399 80.5645 44.5698 81.9871 45.4323C82.0744 45.4867 83.0276 46.2188 83.5442 46.6319C83.3004 46.0448 83.053 45.4613 82.8275 44.8561C82.169 43.1201 81.5577 41.337 80.9429 39.5648C80.7537 39.0212 80.5609 38.4812 80.368 37.9412C80.157 38.0826 77.643 39.7714 76.2641 40.0034C75.0381 40.2099 73.4154 40.1302 72.4586 39.2314C71.5199 38.3507 71.4108 36.8322 72.4295 35.9588C73.8411 34.7411 77.1009 35.5747 78.5235 36.4372C78.629 36.5024 80.0006 37.5571 80.3353 37.8434C79.9096 36.6546 79.4767 35.4732 79.0001 34.3243C78.3452 32.7406 77.6139 31.222 76.799 29.805C76.7007 29.8702 74.0849 31.6461 72.6732 31.8816C71.4472 32.0882 69.8245 32.0085 68.8677 31.1097C67.929 30.229 67.8199 28.7141 68.8386 27.8371C70.2502 26.6194 73.51 27.4529 74.9326 28.3155C75.0453 28.3843 76.5152 29.5223 76.7662 29.747C76.7189 29.6637 76.6753 29.5694 76.628 29.4861C75.7366 27.9821 74.6852 26.6375 73.6374 25.427C73.0298 24.7239 72.4113 24.0825 71.7928 23.4736C71.338 23.8542 69.2497 25.5684 68.0018 25.9199C66.8048 26.257 65.1858 26.3584 64.1344 25.5684C63.1047 24.7928 62.8282 23.2997 63.7451 22.3175C65.0148 20.9548 68.3474 21.426 69.8573 22.1254C69.9409 22.1653 70.7304 22.6437 71.3016 23.0025C71.0178 22.7307 70.7304 22.448 70.4576 22.1943C69.4243 21.2375 68.4165 20.4257 67.5179 19.7154C67.0049 19.3167 66.5319 18.9615 66.0881 18.639C65.4477 18.7803 62.8646 19.3203 61.6131 19.0667C60.3943 18.8166 58.9099 18.1642 58.3423 16.9791C57.7857 15.8194 58.2332 14.3661 59.4993 13.9167C61.2565 13.2898 63.9961 15.2359 65.0112 16.5515C65.0985 16.6638 66.2663 18.5991 66.2336 18.61C66.2336 18.61 66.2009 18.6173 66.1936 18.6173C66.6302 18.9217 67.0922 19.2515 67.5907 19.6248C68.5038 20.317 69.5335 21.1107 70.5922 22.0493C71.6545 22.9844 72.7787 24.0281 73.8666 25.235C74.958 26.4418 76.0422 27.7682 76.9845 29.2795C76.9954 29.2976 77.0027 29.3157 77.0136 29.3339C76.8754 28.8084 76.5407 27.3188 76.5297 27.2029C76.3515 25.5539 76.9772 22.2595 78.6799 21.5021C79.906 20.9585 81.2376 21.6978 81.6414 22.9191C82.0525 24.1658 81.4377 25.659 80.7282 26.681C79.9315 27.8298 77.3192 29.3882 77.1082 29.5114C77.9923 30.9575 78.7818 32.5159 79.4912 34.1322C79.8987 35.0564 80.2807 36.0023 80.6518 36.9518C80.5463 36.4916 80.459 36.082 80.4517 36.0204C80.2735 34.3714 80.8992 31.0771 82.6019 30.3196C83.828 29.7724 85.1596 30.5153 85.5634 31.7367C85.9745 32.9834 85.3597 34.4765 84.6502 35.4985C83.9335 36.535 81.7324 37.905 81.1466 38.2601C81.2849 38.6262 81.4268 38.9922 81.565 39.3583C82.2235 41.1196 82.8711 42.8809 83.5588 44.5879C83.8025 45.1895 84.0608 45.773 84.3228 46.3565C84.2318 45.947 84.1554 45.6027 84.1518 45.5519C83.9735 43.9029 84.5993 40.6086 86.302 39.8511C87.5317 39.3039 88.8596 40.0469 89.2671 41.2682C89.6782 42.5149 89.0634 44.008 88.3539 45.0301C87.6699 46.0158 85.6507 47.3024 84.9522 47.7264C85.236 48.3172 85.5198 48.9115 85.8181 49.4696C86.0327 49.8465 86.211 50.2271 86.4475 50.5931C86.6731 50.9628 86.8986 51.3252 87.1206 51.6876C87.5753 52.369 88.0374 53.072 88.4958 53.7244C88.8123 54.181 89.1216 54.6087 89.4308 55.0436C89.1834 54.4492 88.7214 53.2714 88.6923 53.1663C88.4085 52.1008 88.3685 50.2669 88.8305 48.8572C88.7869 48.7013 88.7578 48.5419 88.7468 48.3788C88.6486 47.0994 89.5873 45.9035 90.9334 45.9325C92.7998 45.976 94.6517 48.7738 95.1283 50.3648C95.1574 50.459 95.3465 51.51 95.4521 52.1769C95.4484 51.7746 95.4411 51.3868 95.4411 50.9737C95.4375 50.1582 95.4593 49.3428 95.4775 48.4657C95.503 48.0417 95.5248 47.6141 95.5503 47.1828C95.5648 46.7552 95.6376 46.3021 95.6776 45.86C95.7941 44.8307 95.965 43.7978 96.1579 42.7577C95.4411 42.7577 92.8908 42.7251 91.7484 42.2213C90.6096 41.7176 89.3035 40.7644 89.0015 39.4851C88.7068 38.2348 89.4563 36.9083 90.7879 36.738C92.6397 36.4988 94.8954 38.985 95.6085 40.4854C95.6522 40.5796 96.0415 41.714 96.2416 42.3409C96.3616 41.7176 96.4817 41.0942 96.6236 40.4673C97.0383 38.6552 97.5113 36.8359 97.9806 35.0202C98.1225 34.462 98.2608 33.9075 98.399 33.3494C98.1443 33.353 95.1137 33.3784 93.8331 32.8131C92.6943 32.3093 91.3882 31.3561 91.0862 30.0768C90.7915 28.8265 91.541 27.5037 92.8726 27.3297C94.7244 27.0905 96.9801 29.5767 97.6932 31.0771C97.7478 31.1894 98.3044 32.8239 98.4245 33.2443C98.7301 32.0194 99.0211 30.7944 99.2576 29.5767C99.5887 27.8951 99.8216 26.228 99.9234 24.5971C99.8034 24.5971 96.6418 24.6406 95.332 24.0607C94.1932 23.557 92.8871 22.6038 92.5852 21.3245C92.2905 20.0742 93.0399 18.7513 94.3715 18.5774C96.2234 18.3382 98.4791 20.8244 99.1921 22.3248C99.2467 22.4444 99.847 24.1984 99.9307 24.5246C99.938 24.4268 99.9525 24.3289 99.9598 24.2311C100.047 22.4878 99.9161 20.7881 99.7124 19.2007C99.596 18.2802 99.4323 17.4032 99.254 16.5587C98.6646 16.6276 95.9723 16.9067 94.7353 16.5152C93.5493 16.1383 92.1413 15.3338 91.7047 14.0979C91.2754 12.8875 91.8721 11.4886 93.1782 11.1733C94.99 10.7347 97.5113 12.9563 98.3808 14.3698C98.4281 14.4459 98.8247 15.283 99.1012 15.8955C99.0139 15.515 98.9338 15.12 98.8429 14.7539C98.5082 13.3876 98.1189 12.159 97.766 11.0718C97.5586 10.4557 97.3621 9.90118 97.1693 9.38655C96.5581 9.1546 94.1023 8.18333 93.2 7.28454C92.3196 6.4075 91.4464 5.04482 91.6283 3.74737C91.8066 2.4753 92.9854 1.50765 94.2915 1.82657C96.1033 2.26872 97.3112 5.39636 97.4312 7.0526C97.4422 7.19394 97.3439 9.45178 97.3112 9.44091C97.3112 9.44091 97.2821 9.43004 97.2748 9.42641C97.4676 9.9193 97.6714 10.4484 97.8824 11.0319C98.2608 12.1119 98.6792 13.3369 99.043 14.7032C99.4104 16.0659 99.7706 17.5554 100.011 19.1609C100.251 20.7664 100.422 22.4697 100.371 24.2492C100.371 24.2709 100.367 24.289 100.367 24.3108C100.546 23.7962 101.088 22.3719 101.142 22.2668C101.906 20.7917 104.253 18.3889 106.094 18.6934C107.422 18.9144 108.12 20.2626 107.782 21.5021C107.422 22.7633 106.079 23.6729 104.926 24.1332Z" fill="#919191"/>
<path d="M71.7637 23.1257C71.7382 23.1511 70.6722 21.1578 70.6213 21.0237C70.0101 19.4798 69.7408 16.1383 71.1852 14.9569C72.2257 14.1088 73.7065 14.4712 74.4196 15.544C75.1472 16.6385 74.9508 18.2403 74.536 19.4109C74.0521 20.7845 71.7673 23.1221 71.7637 23.1257Z" fill="#919191"/>
<path d="M130.83 36.343V31.6569H127.723L41.5265 117.52V125.301L130.83 36.343Z" fill="white"/>
<path d="M41.5265 56.033V86.5374L96.6199 31.6569H65.9971L41.5265 56.033Z" fill="white"/>
<path d="M117.536 149.416L130.83 136.174V105.669L86.9132 149.416H117.536Z" fill="white"/>
<path d="M133.53 157.872H38.827C36.775 157.872 35.1124 156.215 35.1124 154.171V26.9021C35.1124 24.858 36.775 23.2018 38.827 23.2018H133.526C135.578 23.2018 137.241 24.858 137.241 26.9021V154.171C137.244 156.215 135.582 157.872 133.53 157.872Z" fill="#263238"/>
<path d="M130.83 31.6569H41.5265V149.416H130.83V31.6569Z" fill="#66CE2C"/>
<path opacity="0.2" d="M35.1124 43.845V81.5252L93.6657 23.2018H55.8392L35.1124 43.845Z" fill="white"/>
<path opacity="0.2" d="M137.244 27.6704V26.4889C137.244 24.6732 135.767 23.2018 133.944 23.2018H132.082L35.1124 119.793V129.404L137.244 27.6704Z" fill="white"/>
<path opacity="0.2" d="M137.244 150.978V113.298L92.4978 157.872H130.321L137.244 150.978Z" fill="white"/>
<path d="M107.116 77.9736H65.2367V85.0479H107.116V77.9736Z" fill="white" stroke="#263238" stroke-miterlimit="10" stroke-linecap="round" stroke-linejoin="round"/>
<path d="M107.116 91.1474H65.2367V98.2217H107.116V91.1474Z" fill="white" stroke="#263238" stroke-miterlimit="10" stroke-linecap="round" stroke-linejoin="round"/>
<path d="M95.8122 111.482H76.5443C75.5729 111.482 74.7834 110.696 74.7834 109.728V106.162C74.7834 105.195 75.5729 104.408 76.5443 104.408H95.8122C96.7836 104.408 97.5731 105.195 97.5731 106.162V109.728C97.5768 110.696 96.7873 111.482 95.8122 111.482Z" fill="#263238" stroke="#263238" stroke-miterlimit="10" stroke-linecap="round" stroke-linejoin="round"/>
<path d="M93.371 55.6706C93.371 57.9574 92.2977 59.9978 90.6169 61.3097C89.3944 62.2738 87.8482 62.8427 86.171 62.8427C84.4901 62.8427 82.9439 62.2701 81.7215 61.3097C80.0406 60.0014 78.9673 57.961 78.9673 55.6706C78.9673 51.7057 82.1908 48.4947 86.171 48.4947C90.1476 48.4947 93.371 51.7057 93.371 55.6706Z" fill="white" stroke="#263238" stroke-miterlimit="10" stroke-linecap="round" stroke-linejoin="round"/>
<path d="M88.295 56.6676C89.47 55.4971 89.47 53.5994 88.295 52.429C87.12 51.2585 85.215 51.2585 84.04 52.429C82.865 53.5994 82.865 55.4971 84.04 56.6676C85.215 57.838 87.12 57.838 88.295 56.6676Z" fill="#263238" stroke="#263238" stroke-miterlimit="10" stroke-linecap="round" stroke-linejoin="round"/>
<path d="M90.6169 61.3097C89.3944 62.2737 87.8482 62.8427 86.171 62.8427C84.4901 62.8427 82.9439 62.2701 81.7215 61.3097C82.169 59.273 83.9917 57.7472 86.171 57.7472C88.3466 57.7472 90.1694 59.273 90.6169 61.3097Z" fill="#263238" stroke="#263238" stroke-miterlimit="10" stroke-linecap="round" stroke-linejoin="round"/>
<path d="M81.8524 71.1131V67.9854H82.4273V70.7216H83.1877V71.1167H81.8524V71.1131Z" fill="#263238"/>
<path d="M84.301 71.1529C84.079 71.1529 83.9008 71.1131 83.7698 71.0297C83.6388 70.9464 83.5442 70.8304 83.486 70.6745C83.4278 70.5187 83.4023 70.3375 83.4023 70.1273V68.9567C83.4023 68.7465 83.4314 68.5653 83.486 68.4131C83.5442 68.2609 83.6388 68.1485 83.7698 68.0688C83.9008 67.989 84.079 67.9492 84.301 67.9492C84.5302 67.9492 84.7084 67.989 84.8394 68.0688C84.9704 68.1485 85.065 68.2645 85.1232 68.4131C85.1814 68.5653 85.2105 68.7429 85.2105 68.9567V70.1309C85.2105 70.3411 85.1814 70.5187 85.1232 70.6745C85.065 70.8268 84.9704 70.9464 84.8394 71.0297C84.7084 71.1131 84.5265 71.1529 84.301 71.1529ZM84.301 70.7325C84.3956 70.7325 84.4683 70.7108 84.512 70.6709C84.5556 70.631 84.5884 70.5731 84.6029 70.5006C84.6175 70.4281 84.6248 70.3484 84.6248 70.265V68.8226C84.6248 68.7356 84.6175 68.6559 84.6029 68.587C84.5884 68.5182 84.5556 68.4638 84.512 68.4239C84.4683 68.3841 84.3956 68.3623 84.301 68.3623C84.21 68.3623 84.1409 68.3841 84.0936 68.4239C84.0463 68.4638 84.0172 68.5182 83.999 68.587C83.9844 68.6559 83.9772 68.7356 83.9772 68.8226V70.265C83.9772 70.3484 83.9844 70.4281 83.999 70.5006C84.0135 70.5731 84.0427 70.631 84.0899 70.6709C84.1372 70.7108 84.2064 70.7325 84.301 70.7325Z" fill="#263238"/>
<path d="M86.4184 71.1529C86.211 71.1529 86.0473 71.1094 85.9272 71.0225C85.8072 70.9355 85.7199 70.8123 85.6653 70.6492C85.6107 70.4897 85.5853 70.2976 85.5853 70.0802V69.0292C85.5853 68.8045 85.6107 68.6124 85.6617 68.4493C85.7126 68.2862 85.8035 68.163 85.9345 68.076C86.0655 67.989 86.2438 67.9455 86.4766 67.9455C86.6913 67.9455 86.8623 67.9818 86.9896 68.0543C87.1169 68.1268 87.2079 68.2319 87.2625 68.366C87.317 68.5 87.3461 68.6668 87.3461 68.8588V69.0219H86.8004V68.8443C86.8004 68.7429 86.7931 68.6559 86.7786 68.587C86.764 68.5145 86.7349 68.4602 86.6949 68.4239C86.6512 68.3877 86.5821 68.3696 86.4875 68.3696C86.3857 68.3696 86.3129 68.3949 86.2692 68.4421C86.2256 68.4928 86.1965 68.5544 86.1856 68.6341C86.1746 68.7139 86.1674 68.8009 86.1674 68.8951V70.2034C86.1674 70.3121 86.1746 70.4063 86.1928 70.4861C86.211 70.5658 86.2438 70.6274 86.2947 70.6709C86.342 70.7144 86.4148 70.7361 86.5057 70.7361C86.6003 70.7361 86.6694 70.7144 86.7204 70.6673C86.7677 70.6202 86.804 70.5549 86.8222 70.4752C86.8404 70.3919 86.8513 70.294 86.8513 70.1816V69.8881H86.513V69.5293H87.368V71.1167H87.0005L86.9569 70.8086C86.9168 70.9101 86.8513 70.9971 86.7677 71.0623C86.6767 71.1203 86.5639 71.1529 86.4184 71.1529Z" fill="#263238"/>
<path d="M87.8155 71.1131V67.9854H88.383V71.1131H87.8155Z" fill="#263238"/>
<path d="M88.8633 71.1131V67.9854H89.2635L90.0275 69.7721V67.9854H90.5005V71.1131H90.1221L89.3544 69.243V71.1131H88.8633Z" fill="#263238"/>
<path d="M79.4221 83.3121C79.1929 83.3121 79.0183 83.2686 78.8982 83.178C78.7781 83.0874 78.6945 82.9606 78.6508 82.7975C78.6071 82.6344 78.5853 82.4423 78.5853 82.2249V80.1518H79.0037V82.2466C79.0037 82.3807 79.0146 82.5039 79.0292 82.6126C79.0474 82.725 79.0874 82.812 79.1492 82.8772C79.2111 82.9424 79.302 82.9751 79.4221 82.9751C79.5458 82.9751 79.6368 82.9424 79.6986 82.8772C79.7568 82.812 79.7968 82.725 79.815 82.6126C79.8332 82.5003 79.8405 82.3807 79.8405 82.2466V80.1518H80.2552V82.2249C80.2552 82.4423 80.2334 82.6344 80.1898 82.7975C80.1461 82.9606 80.0624 83.0874 79.9424 83.178C79.8223 83.2686 79.6477 83.3121 79.4221 83.3121Z" fill="#CCCCCC"/>
<path d="M81.4559 83.3119C81.2739 83.3119 81.1248 83.2721 81.0047 83.196C80.8847 83.1199 80.7937 83.0111 80.7319 82.877C80.67 82.7393 80.6336 82.5835 80.6227 82.4023L81.012 82.2972C81.0193 82.4095 81.0375 82.5146 81.0629 82.6161C81.0884 82.7176 81.1357 82.8046 81.1975 82.8698C81.2594 82.935 81.3467 82.9677 81.4559 82.9677C81.5686 82.9677 81.656 82.935 81.7142 82.8734C81.7724 82.8118 81.8015 82.7212 81.8015 82.6016C81.8015 82.4603 81.7687 82.3443 81.7033 82.2609C81.6378 82.174 81.5577 82.087 81.4595 82L80.932 81.5361C80.8301 81.4455 80.7537 81.3477 80.7028 81.2389C80.6518 81.1338 80.63 80.9997 80.63 80.8439C80.63 80.6156 80.6955 80.438 80.8265 80.3112C80.9574 80.1843 81.1393 80.1227 81.3649 80.1227C81.4886 80.1227 81.5977 80.1372 81.6923 80.1698C81.7869 80.2024 81.867 80.2532 81.9288 80.3184C81.9907 80.3836 82.0416 80.4706 82.0816 80.5721C82.118 80.6736 82.1435 80.7932 82.158 80.9309L81.7869 81.0324C81.7797 80.9309 81.7651 80.833 81.7396 80.7497C81.7178 80.6627 81.6742 80.5938 81.6159 80.5395C81.5577 80.4851 81.474 80.4597 81.3649 80.4597C81.2558 80.4597 81.1721 80.4887 81.1102 80.5467C81.0484 80.6047 81.0193 80.6917 81.0193 80.804C81.0193 80.8983 81.0338 80.978 81.0666 81.0396C81.0993 81.1012 81.1502 81.1628 81.223 81.2281L81.7542 81.692C81.8743 81.7934 81.9761 81.9166 82.0671 82.0616C82.158 82.203 82.2017 82.3733 82.2017 82.569C82.2017 82.7248 82.1689 82.8553 82.1035 82.9677C82.038 83.08 81.9507 83.167 81.8379 83.225C81.736 83.283 81.605 83.3119 81.4559 83.3119Z" fill="#CCCCCC"/>
<path d="M82.551 83.2793V80.1517H83.7698V80.4779H82.9912V81.5144H83.6242V81.8224H82.9912V82.9713H83.777V83.283H82.551V83.2793Z" fill="#CCCCCC"/>
<path d="M84.1299 83.2793V80.1517H84.763C84.974 80.1517 85.145 80.1807 85.2833 80.235C85.4215 80.2894 85.5234 80.38 85.5889 80.5032C85.6544 80.6265 85.6871 80.7859 85.6871 80.9852C85.6871 81.1048 85.6725 81.2172 85.6471 81.315C85.6216 81.4129 85.578 81.4962 85.5234 81.5651C85.4652 81.634 85.3924 81.6847 85.2978 81.7137L85.7453 83.283H85.3233L84.9122 81.8152H84.5702V83.283H84.1299V83.2793ZM84.5665 81.4962H84.7339C84.8576 81.4962 84.9595 81.4818 85.0359 81.4491C85.1123 81.4165 85.1705 81.3658 85.2069 81.2897C85.2432 81.2136 85.2614 81.1121 85.2614 80.978C85.2614 80.7968 85.2287 80.6627 85.1596 80.583C85.0904 80.5032 84.9595 80.4597 84.7594 80.4597H84.5665V81.4962Z" fill="#CCCCCC"/>
<path d="M86.1419 83.2793V80.1517H86.4402L87.3316 82.2319V80.1517H87.6954V83.2793H87.4152L86.513 81.1411V83.2793H86.1419Z" fill="#CCCCCC"/>
<path d="M88.0192 83.2793L88.685 80.1517H89.107L89.7764 83.2793H89.3617L89.2198 82.4929H88.5795L88.4267 83.2793H88.0192ZM88.6413 82.1776H89.1652L88.9033 80.7678L88.6413 82.1776Z" fill="#CCCCCC"/>
<path d="M90.0893 83.2793L90.1475 80.1517H90.5768L91.1299 82.6886L91.6901 80.1517H92.1158L92.174 83.2793H91.8211L91.7847 81.007L91.2536 83.2793H91.0062L90.4786 81.007L90.4422 83.2793H90.0893Z" fill="#CCCCCC"/>
<path d="M92.6579 83.2793V80.1517H93.8767V80.4779H93.0981V81.5144H93.7312V81.8224H93.0981V82.9713H93.884V83.283H92.6579V83.2793Z" fill="#CCCCCC"/>
<path d="M78.3052 96.225V93.0937H79.0838C79.2729 93.0937 79.4221 93.1263 79.5349 93.1952C79.6477 93.264 79.7277 93.3619 79.7823 93.4924C79.8332 93.6228 79.8587 93.7787 79.8587 93.9599C79.8587 94.123 79.8296 94.2679 79.7714 94.3875C79.7132 94.5071 79.6258 94.6013 79.5131 94.6666C79.4003 94.7318 79.2584 94.7644 79.0874 94.7644H78.7418V96.2213H78.3052V96.225ZM78.7454 94.4564H78.9455C79.0728 94.4564 79.1711 94.4419 79.2438 94.4129C79.3166 94.3839 79.3675 94.3332 79.4003 94.2643C79.433 94.1918 79.4476 94.094 79.4476 93.9635C79.4476 93.8149 79.4367 93.6989 79.4148 93.6192C79.393 93.5395 79.3457 93.4851 79.2766 93.4525C79.2075 93.4199 79.0983 93.4054 78.9491 93.4054H78.7418V94.4564H78.7454Z" fill="#CCCCCC"/>
<path d="M79.8514 96.2248L80.5172 93.0935H80.9392L81.6087 96.2248H81.1939L81.052 95.4384H80.4117L80.2589 96.2248H79.8514ZM80.4699 95.1231H80.9938L80.7319 93.7133L80.4699 95.1231Z" fill="#CCCCCC"/>
<path d="M82.6674 96.2574C82.4855 96.2574 82.3363 96.2176 82.2163 96.1414C82.0962 96.0653 82.0052 95.9566 81.9434 95.8225C81.8815 95.6848 81.8452 95.529 81.8342 95.3478L82.2235 95.2427C82.2308 95.355 82.249 95.4601 82.2745 95.5616C82.2999 95.6631 82.3472 95.75 82.4091 95.8153C82.4709 95.8805 82.5583 95.9131 82.6674 95.9131C82.7802 95.9131 82.8675 95.8805 82.9257 95.8189C82.9839 95.7573 83.013 95.6631 83.013 95.5471C83.013 95.4057 82.9803 95.2898 82.9148 95.2064C82.8493 95.1194 82.7693 95.0325 82.671 94.9455L82.1435 94.4816C82.0416 94.391 81.9652 94.2931 81.9143 94.1844C81.8633 94.0793 81.8415 93.9452 81.8415 93.7894C81.8415 93.5611 81.907 93.3835 82.038 93.2566C82.169 93.1298 82.3509 93.0682 82.5764 93.0682C82.7001 93.0682 82.8093 93.0863 82.9039 93.1153C82.9985 93.1479 83.0785 93.1986 83.1404 93.2639C83.2022 93.3291 83.2531 93.4161 83.2932 93.5176C83.3296 93.619 83.355 93.7386 83.3696 93.8764L82.9985 93.9778C82.9912 93.8763 82.9766 93.7821 82.9512 93.6951C82.9293 93.6082 82.8857 93.5393 82.8275 93.4849C82.7693 93.4342 82.6856 93.4052 82.5764 93.4052C82.4673 93.4052 82.3836 93.4342 82.3218 93.4922C82.2599 93.5502 82.2308 93.6372 82.2308 93.7495C82.2308 93.8437 82.2454 93.9235 82.2781 93.9851C82.3108 94.0467 82.3618 94.1083 82.4346 94.1735L82.9657 94.6374C83.0858 94.7389 83.1877 94.8621 83.2786 95.0071C83.3696 95.1484 83.4132 95.3188 83.4132 95.5145C83.4132 95.6703 83.3805 95.8008 83.315 95.9131C83.2495 96.0255 83.1622 96.1088 83.0494 96.1704C82.9475 96.2284 82.8166 96.2574 82.6674 96.2574Z" fill="#CCCCCC"/>
<path d="M84.5047 96.2574C84.3228 96.2574 84.1736 96.2176 84.0536 96.1414C83.9335 96.0653 83.8425 95.9566 83.7807 95.8225C83.7188 95.6848 83.6825 95.529 83.6715 95.3478L84.0608 95.2427C84.0681 95.355 84.0863 95.4601 84.1118 95.5616C84.1372 95.6631 84.1845 95.75 84.2464 95.8153C84.3082 95.8805 84.3955 95.9131 84.5047 95.9131C84.6175 95.9131 84.7048 95.8805 84.763 95.8189C84.8212 95.7573 84.8503 95.6631 84.8503 95.5471C84.8503 95.4057 84.8176 95.2898 84.7521 95.2064C84.6866 95.1194 84.6066 95.0325 84.5083 94.9455L83.9808 94.4816C83.8789 94.391 83.8025 94.2931 83.7516 94.1844C83.7006 94.0793 83.6788 93.9452 83.6788 93.7894C83.6788 93.5611 83.7443 93.3835 83.8753 93.2566C84.0063 93.1298 84.1882 93.0682 84.4137 93.0682C84.5374 93.0682 84.6466 93.0863 84.7412 93.1153C84.8358 93.1479 84.9158 93.1986 84.9777 93.2639C85.0395 93.3291 85.0904 93.4161 85.1305 93.5176C85.1668 93.619 85.1923 93.7386 85.2069 93.8764L84.8358 93.9778C84.8285 93.8763 84.8139 93.7821 84.7885 93.6951C84.7666 93.6082 84.723 93.5393 84.6648 93.4849C84.6066 93.4342 84.5229 93.4052 84.4137 93.4052C84.3046 93.4052 84.2209 93.4342 84.1591 93.4922C84.0972 93.5502 84.0681 93.6372 84.0681 93.7495C84.0681 93.8437 84.0827 93.9235 84.1154 93.9851C84.1481 94.0467 84.1991 94.1083 84.2718 94.1735L84.803 94.6374C84.9231 94.7389 85.025 94.8621 85.1159 95.0071C85.2069 95.1484 85.2505 95.3188 85.2505 95.5145C85.2505 95.6703 85.2178 95.8008 85.1523 95.9131C85.0868 96.0255 84.9995 96.1088 84.8867 96.1704C84.7812 96.2284 84.6502 96.2574 84.5047 96.2574Z" fill="#CCCCCC"/>
<path d="M86.0036 96.2248L85.4906 93.0935H85.8545L86.1928 95.3405L86.6149 93.1044H86.9241L87.3498 95.3514L87.6809 93.0899H88.0374L87.5317 96.2212H87.2152L86.7786 93.9017L86.3347 96.2212H86.0036V96.2248Z" fill="#CCCCCC"/>
<path d="M89.198 96.2574C88.987 96.2574 88.816 96.2176 88.6886 96.1342C88.5613 96.0508 88.4703 95.9349 88.4158 95.779C88.3612 95.6268 88.3357 95.4456 88.3357 95.239V94.0539C88.3357 93.8474 88.3648 93.6698 88.4194 93.5212C88.474 93.3726 88.5649 93.2602 88.6923 93.1805C88.816 93.1008 88.987 93.0609 89.198 93.0609C89.409 93.0609 89.5764 93.1008 89.7037 93.1805C89.8274 93.2602 89.9183 93.3726 89.9729 93.5212C90.0275 93.6698 90.0566 93.8437 90.0566 94.0503V95.239C90.0566 95.442 90.0275 95.6196 89.9729 95.7718C89.9183 95.924 89.8274 96.04 89.7037 96.1269C89.5764 96.2175 89.409 96.2574 89.198 96.2574ZM89.198 95.9167C89.3144 95.9167 89.4017 95.8914 89.4599 95.8443C89.5181 95.7971 89.5582 95.7283 89.58 95.6449C89.6018 95.558 89.6127 95.4565 89.6127 95.3405V93.9706C89.6127 93.8546 89.6018 93.7531 89.58 93.6698C89.5582 93.5864 89.5181 93.5212 89.4599 93.4777C89.4017 93.4342 89.3108 93.4088 89.198 93.4088C89.0816 93.4088 88.9942 93.4306 88.9324 93.4777C88.8705 93.5212 88.8305 93.5864 88.8087 93.6698C88.7869 93.7531 88.7759 93.8546 88.7759 93.9706V95.3405C88.7759 95.4565 88.7869 95.558 88.8087 95.6449C88.8305 95.7319 88.8705 95.7971 88.9324 95.8443C88.9906 95.8914 89.0816 95.9167 89.198 95.9167Z" fill="#CCCCCC"/>
<path d="M90.4823 96.2248V93.0935H91.1153C91.3263 93.0935 91.4973 93.1225 91.6356 93.1769C91.7738 93.2313 91.8757 93.3219 91.9412 93.4451C92.0067 93.5683 92.0394 93.7278 92.0394 93.9271C92.0394 94.0467 92.0249 94.159 91.9994 94.2569C91.9739 94.3547 91.9303 94.4381 91.8757 94.507C91.8175 94.5758 91.7447 94.6266 91.6501 94.6555L92.0976 96.2248H91.6756L91.2645 94.757H90.9225V96.2248H90.4823ZM90.9225 94.4417H91.0898C91.2135 94.4417 91.3154 94.4272 91.3918 94.3946C91.4682 94.362 91.5264 94.3112 91.5628 94.2351C91.5992 94.159 91.6174 94.0576 91.6174 93.9235C91.6174 93.7423 91.5846 93.6082 91.5155 93.5284C91.4464 93.4487 91.3154 93.4052 91.1153 93.4052H90.9225V94.4417Z" fill="#CCCCCC"/>
<path d="M92.4978 96.2248V93.0935H93.1818C93.4147 93.0935 93.6002 93.1298 93.7348 93.1986C93.8694 93.2711 93.9677 93.3762 94.0259 93.5176C94.0841 93.6589 94.1132 93.8365 94.1132 94.0467V95.1992C94.1132 95.4202 94.0841 95.6087 94.0259 95.7609C93.9677 95.9131 93.8731 96.0291 93.7421 96.1052C93.6111 96.1849 93.4365 96.2248 93.2182 96.2248H92.4978ZM92.9344 95.9131H93.1818C93.3419 95.9131 93.4547 95.8841 93.5238 95.8189C93.5893 95.7573 93.633 95.6667 93.6475 95.5471C93.6621 95.4275 93.6693 95.2861 93.6693 95.1194V94.1047C93.6693 93.9416 93.6584 93.8111 93.6366 93.7096C93.6148 93.6082 93.5711 93.5357 93.502 93.4886C93.4329 93.4415 93.3237 93.4197 93.1709 93.4197H92.9344V95.9131Z" fill="#CCCCCC"/>
<path d="M81.5286 109.37C81.3394 109.37 81.183 109.333 81.0557 109.261C80.9283 109.188 80.8337 109.08 80.7683 108.938C80.7028 108.797 80.6664 108.623 80.6591 108.416L81.1503 108.319C81.1539 108.438 81.1685 108.547 81.1939 108.638C81.2194 108.732 81.2558 108.801 81.3067 108.851C81.3576 108.902 81.4231 108.927 81.5068 108.927C81.6014 108.927 81.6669 108.898 81.7033 108.844C81.7433 108.79 81.7615 108.717 81.7615 108.634C81.7615 108.496 81.7287 108.384 81.6669 108.297C81.605 108.21 81.5214 108.123 81.4195 108.032L81.0229 107.684C80.9101 107.59 80.8228 107.481 80.7573 107.365C80.6918 107.249 80.6591 107.104 80.6591 106.931C80.6591 106.684 80.7319 106.492 80.8774 106.358C81.0229 106.224 81.2194 106.159 81.4704 106.159C81.616 106.159 81.7397 106.18 81.8379 106.227C81.9361 106.271 82.0162 106.336 82.0744 106.416C82.1326 106.496 82.1762 106.586 82.2053 106.688C82.2344 106.789 82.2526 106.898 82.2599 107.01L81.7724 107.094C81.7688 106.996 81.7578 106.909 81.7397 106.829C81.7215 106.753 81.6924 106.691 81.6523 106.648C81.6087 106.604 81.5468 106.583 81.4632 106.583C81.3795 106.583 81.314 106.612 81.2667 106.666C81.223 106.72 81.1976 106.789 81.1976 106.873C81.1976 106.978 81.2194 107.065 81.263 107.133C81.3067 107.202 81.3686 107.271 81.4522 107.344L81.8452 107.688C81.9761 107.797 82.0853 107.924 82.1762 108.069C82.2672 108.213 82.3145 108.391 82.3145 108.594C82.3145 108.743 82.2817 108.877 82.2163 108.993C82.1508 109.109 82.0598 109.199 81.9398 109.264C81.8233 109.337 81.6851 109.37 81.5286 109.37Z" fill="#E5E5E5"/>
<path d="M82.6383 109.326V106.198H83.2059V109.326H82.6383Z" fill="#E5E5E5"/>
<path d="M84.4756 109.37C84.2682 109.37 84.1045 109.326 83.9844 109.239C83.8644 109.152 83.7771 109.029 83.7225 108.866C83.6679 108.706 83.6424 108.514 83.6424 108.297V107.246C83.6424 107.021 83.6679 106.829 83.7188 106.666C83.7698 106.503 83.8607 106.38 83.9917 106.293C84.1227 106.206 84.301 106.162 84.5338 106.162C84.7485 106.162 84.9195 106.198 85.0468 106.271C85.1741 106.343 85.2651 106.449 85.3197 106.583C85.3742 106.717 85.4033 106.883 85.4033 107.076V107.239H84.8576V107.061C84.8576 106.96 84.8503 106.873 84.8358 106.804C84.8212 106.731 84.7921 106.677 84.7521 106.641C84.7084 106.604 84.6393 106.583 84.5447 106.583C84.4429 106.583 84.3701 106.608 84.3264 106.655C84.2828 106.706 84.2537 106.767 84.2427 106.847C84.2318 106.927 84.2246 107.014 84.2246 107.112V108.42C84.2246 108.529 84.2318 108.623 84.25 108.703C84.2682 108.782 84.301 108.844 84.3519 108.888C84.3992 108.931 84.472 108.953 84.5629 108.953C84.6575 108.953 84.7266 108.931 84.7776 108.884C84.8249 108.837 84.8612 108.772 84.8794 108.692C84.8976 108.609 84.9085 108.511 84.9085 108.398V108.105H84.5702V107.746H85.4252V109.333H85.0577L85.014 109.025C84.974 109.127 84.9085 109.214 84.8249 109.279C84.7339 109.337 84.6211 109.37 84.4756 109.37Z" fill="#E5E5E5"/>
<path d="M85.8581 109.326V106.198H86.2583L87.0223 107.982V106.198H87.4953V109.326H87.1169L86.3493 107.456V109.326H85.8581Z" fill="#E5E5E5"/>
<path d="M88.9288 109.326V106.198H89.4963V109.326H88.9288Z" fill="#E5E5E5"/>
<path d="M89.9802 109.326V106.198H90.3804L91.1444 107.982V106.198H91.6174V109.326H91.239L90.4714 107.456V109.326H89.9802Z" fill="#E5E5E5"/>
<path d="M129.065 58.1676C129.065 58.1676 128.603 61.7845 128.778 62.2991C128.953 62.8174 129.99 64.8831 130.044 65.0535C130.102 65.2274 128.833 66.3147 129.065 66.8329C129.295 67.3512 130.564 67.9818 130.564 67.9818C130.564 67.9818 133.675 71.5407 134.079 71.4827C134.483 71.4247 135.982 70.6202 135.982 70.6202L136.848 72.628L145.43 69.0111L142.836 64.7635C142.836 64.7635 140.129 57.9357 137.593 55.7539C135.058 53.5794 130.102 55.7032 129.065 58.1676Z" fill="white" stroke="#263238" stroke-miterlimit="10" stroke-linecap="round" stroke-linejoin="round"/>
<path d="M134.075 71.4827L136.251 69.1524L135.978 70.6202L134.075 71.4827Z" fill="#263238" stroke="#263238" stroke-miterlimit="10" stroke-linecap="round" stroke-linejoin="round"/>
<path d="M129.582 63.9082C129.582 63.9082 130.561 66.09 129.986 66.4343C129.411 66.7786 128.258 64.7128 128.258 64.7128L133.73 61.2699" stroke="#263238" stroke-miterlimit="10" stroke-linecap="round" stroke-linejoin="round"/>
<path d="M131.368 67.7535C131.368 67.7535 132.234 67.3512 131.889 66.2603" stroke="#263238" stroke-miterlimit="10" stroke-linecap="round" stroke-linejoin="round"/>
<path d="M129.353 62.5891C129.353 62.5891 129.353 61.8425 130.219 62.1868" stroke="#263238" stroke-miterlimit="10" stroke-linecap="round" stroke-linejoin="round"/>
<path d="M130.219 64.2525L130.91 65.4558" stroke="#263238" stroke-miterlimit="10" stroke-linecap="round" stroke-linejoin="round"/>
<path d="M129.582 55.6452C129.757 55.7032 129.524 53.2351 128.716 53.8657C127.909 54.4963 127.85 56.794 127.85 56.794C127.85 56.794 126.813 55.5328 126.584 56.5657C126.355 57.5986 127.909 59.3201 128.487 59.2621C129.062 59.2041 131.481 56.968 131.368 57.6566C131.252 58.3452 130.503 59.552 130.965 59.7803C131.427 60.0087 132.576 59.552 132.576 59.552C132.576 59.552 132.751 62.136 133.442 62.0201C134.134 61.9041 134.654 60.8132 135.17 61.5018C135.687 62.1904 139.26 65.6913 139.493 65.6913C139.722 65.6913 142.832 64.7744 142.832 64.7744C142.832 64.7744 143.062 61.2155 143.236 58.8634C143.411 56.5114 142.025 53.3547 140.009 52.0935C137.994 50.8323 134.996 51.1186 133.559 52.0935C132.122 53.0684 129.582 55.6452 129.582 55.6452Z" fill="#263238" stroke="#263238" stroke-miterlimit="10" stroke-linecap="round" stroke-linejoin="round"/>
<path d="M133.788 63.1037C133.788 63.1037 133.326 59.8311 134.479 60.4073C135.632 60.9799 136.553 64.0242 136.266 64.7128C135.978 65.4014 135.287 64.9411 135.287 64.9411" fill="white"/>
<path d="M133.788 63.1037C133.788 63.1037 133.326 59.8311 134.479 60.4073C135.632 60.9799 136.553 64.0242 136.266 64.7128C135.978 65.4014 135.287 64.9411 135.287 64.9411" stroke="#263238" stroke-miterlimit="10" stroke-linecap="round" stroke-linejoin="round"/>
<path d="M135.76 72.367L134.497 75.9332C134.497 75.9332 138.357 73.8348 142.076 72.5772C145.794 71.3196 148.25 70.9681 148.25 70.9681L146.354 68.1702C146.358 68.1739 138.568 68.9422 135.76 72.367Z" fill="#66CE2C" stroke="#263238" stroke-miterlimit="10" stroke-linecap="round" stroke-linejoin="round"/>
<path d="M115.986 80.7098L123.943 94.0104C124.001 94.1083 124.121 94.159 124.234 94.13L131.703 92.3035C131.874 92.26 131.958 92.0679 131.871 91.9157L124.969 79.9886C124.918 79.9016 124.823 79.8509 124.725 79.8581L116.201 80.3148C116.001 80.3256 115.884 80.5431 115.986 80.7098Z" fill="#263238" stroke="#263238" stroke-miterlimit="10" stroke-linecap="round" stroke-linejoin="round"/>
<path d="M116.867 81.2389L124.027 93.2059L130.943 91.5134L124.754 80.8149L116.867 81.2389Z" fill="#878787" stroke="#263238" stroke-miterlimit="10" stroke-linecap="round" stroke-linejoin="round"/>
<path d="M129.935 83.4134C129.935 83.4134 127.828 84.5333 127.057 84.8812C126.286 85.2291 125.864 85.5118 126.355 85.9286C126.846 86.349 128.531 85.3705 128.531 85.3705L129.862 84.8123L129.935 83.4134Z" fill="white" stroke="#263238" stroke-miterlimit="10" stroke-linecap="round" stroke-linejoin="round"/>
<path d="M147.053 158.582L147.529 162.217C147.529 162.217 147.053 163.007 145.547 163.166C144.04 163.326 142.931 163.561 142.931 163.561L143.345 160.028L147.053 158.582Z" fill="white" stroke="#263238" stroke-miterlimit="10" stroke-linecap="round" stroke-linejoin="round"/>
<path d="M147.529 162.217L147.46 161.691C146.041 162.242 144.324 162.42 143.058 162.467L142.931 163.561C142.931 163.561 144.04 163.326 145.547 163.166C147.053 163.007 147.529 162.217 147.529 162.217Z" fill="white" stroke="#263238" stroke-miterlimit="10" stroke-linecap="round" stroke-linejoin="round"/>
<path d="M136.266 157.081L132.14 159.611C132.14 159.611 130.317 160.086 129.284 160.166C128.254 160.245 128.254 161.351 128.727 161.746C129.204 162.141 130.779 162.811 132.773 163.246C136.738 164.116 142.45 163.801 142.927 163.561C143.404 163.326 143.8 162.931 143.88 162.612C143.96 162.297 143.88 159.212 143.88 159.212C143.88 159.212 137.852 158.506 136.266 157.081Z" fill="white" stroke="#263238" stroke-miterlimit="10" stroke-linecap="round" stroke-linejoin="round"/>
<path d="M132.22 162.217C129.895 161.514 128.938 160.941 128.556 160.553C128.316 160.934 128.422 161.485 128.731 161.742C129.207 162.137 130.783 162.808 132.776 163.243C136.742 164.112 142.454 163.797 142.931 163.558C143.375 163.337 143.749 162.978 143.858 162.674C141.206 162.902 135.542 163.221 132.22 162.217Z" fill="white" stroke="#263238" stroke-miterlimit="10" stroke-linecap="round" stroke-linejoin="round"/>
<path d="M149.21 106.996C149.21 106.996 149.21 110.892 147.908 112.983C146.605 115.074 144.793 116.951 144.793 117.241C144.793 117.531 143.054 131.02 143.054 131.745C143.054 132.466 142.982 134.557 143.418 135.641C143.851 136.725 145.517 143.578 146.533 149.71C147.548 155.842 147.111 157.357 147.111 157.357C147.111 157.357 147.544 158.441 147.544 158.727C147.544 159.017 147.326 159.81 147.326 159.81C147.326 159.81 146.165 160.173 145.081 160.173C143.993 160.173 143.342 160.028 143.342 160.028C143.342 160.028 143.269 158.872 143.487 158.296C143.706 157.719 143.56 156.132 143.56 155.77C143.56 155.407 140.806 136.721 140.806 135.279C140.806 133.836 140.733 118.539 140.733 118.539L140.082 107.931C140.086 107.934 143.851 107.789 149.21 106.996Z" fill="#66CE2C" stroke="#263238" stroke-miterlimit="10" stroke-linecap="round" stroke-linejoin="round"/>
<path d="M144.069 115.15C144.069 115.15 142.33 118.325 142.185 118.615C142.039 118.905 142.039 121.427 142.039 122.007C142.039 122.583 141.676 133.55 141.748 135.065C141.821 136.58 142.978 141.269 143.342 144.085C143.706 146.898 144.357 155.124 144.43 155.342C144.502 155.559 144.793 156.567 144.648 157.219C144.502 157.868 144.142 158.589 144.142 158.589C144.142 158.589 144.361 159.814 144.215 160.177C144.069 160.539 142.116 160.898 139.362 160.104C136.607 159.31 135.451 157.578 135.451 157.578C135.451 157.578 135.596 157.216 135.596 156.494C135.596 155.773 136.32 155.628 136.32 155.628L134.945 145.959C134.945 145.959 133.642 142.929 133.57 142.422C133.497 141.918 133.861 140.689 133.788 140.186C133.715 139.682 132.846 138.598 132.773 138.095C132.7 137.591 130.31 129.509 130.164 122.366C130.019 115.223 130.292 108.58 130.292 108.58C130.292 108.58 132.122 109.525 137.772 109.163C143.422 108.801 145.667 108.732 148.348 107.576" fill="#66CE2C"/>
<path d="M144.069 115.15C144.069 115.15 142.33 118.325 142.185 118.615C142.039 118.905 142.039 121.427 142.039 122.007C142.039 122.583 141.676 133.55 141.748 135.065C141.821 136.58 142.978 141.269 143.342 144.085C143.706 146.898 144.357 155.124 144.43 155.342C144.502 155.559 144.793 156.567 144.648 157.219C144.502 157.868 144.142 158.589 144.142 158.589C144.142 158.589 144.361 159.814 144.215 160.177C144.069 160.539 142.116 160.898 139.362 160.104C136.607 159.31 135.451 157.578 135.451 157.578C135.451 157.578 135.596 157.216 135.596 156.494C135.596 155.773 136.32 155.628 136.32 155.628L134.945 145.959C134.945 145.959 133.642 142.929 133.57 142.422C133.497 141.918 133.861 140.689 133.788 140.186C133.715 139.682 132.846 138.598 132.773 138.095C132.7 137.591 130.31 129.509 130.164 122.366C130.019 115.223 130.292 108.58 130.292 108.58C130.292 108.58 132.122 109.525 137.772 109.163C143.422 108.801 145.667 108.732 148.348 107.576" stroke="#263238" stroke-miterlimit="10" stroke-linecap="round" stroke-linejoin="round"/>
<path d="M138.103 151.171L138.565 155.98C138.565 155.98 137.932 156.375 138.168 157.165C138.405 157.955 138.565 158.43 138.565 158.43" stroke="#263238" stroke-miterlimit="10" stroke-linecap="round" stroke-linejoin="round"/>
<path d="M133.948 127.066C134.003 127.414 134.061 127.755 134.126 128.081C135.396 134.561 136.822 139.461 136.902 139.696C136.982 139.932 135.949 140.802 136.346 141.277C136.742 141.751 137.219 141.987 137.219 141.987L137.946 149.547" stroke="#263238" stroke-miterlimit="10" stroke-linecap="round" stroke-linejoin="round"/>
<path d="M133.49 110.544C133.49 110.544 133.027 118.586 133.679 124.972" stroke="#263238" stroke-miterlimit="10" stroke-linecap="round" stroke-linejoin="round"/>
<path d="M131.667 110.384C131.667 110.384 131.43 113.229 133.017 114.65" stroke="#263238" stroke-miterlimit="10" stroke-linecap="round" stroke-linejoin="round"/>
<path d="M143.804 110.779C141.981 111.569 138.012 111.649 138.012 111.649L138.488 112.834C138.488 112.834 141.264 112.675 142.374 112.28" stroke="#263238" stroke-miterlimit="10" stroke-linecap="round" stroke-linejoin="round"/>
<path d="M130.288 108.576C130.288 108.576 131.27 110.392 138.918 109.975C146.565 109.554 149.512 108.297 149.585 107.67C149.654 107.039 149.443 105.571 149.443 105.571C149.443 105.571 134.988 106.619 130.288 108.576Z" fill="#E8E8E8" stroke="#263238" stroke-miterlimit="10" stroke-linecap="round" stroke-linejoin="round"/>
<path d="M134.497 75.9332C134.497 75.9332 130.215 77.8902 130.146 78.5208C130.077 79.1514 127.828 96.0653 127.828 96.0653L124.46 92.1512C124.46 92.1512 124.529 90.7523 124.318 90.1942C124.107 89.6361 124.037 89.2157 123.546 89.0055C123.055 88.7953 121.44 88.3749 121.021 88.027C120.599 87.679 119.406 86.5592 119.126 86.9796C118.846 87.4 118.285 88.0994 118.424 88.5887C118.566 89.078 119.126 90.0565 119.126 90.3355C119.126 90.6146 119.126 92.713 120.039 93.6915C120.952 94.67 122.284 95.0904 122.284 95.0904C122.284 95.0904 124.46 100.824 125.231 101.94C126.002 103.06 129.229 105.644 129.229 105.644C129.229 105.644 128.458 107.46 128.669 107.601C128.88 107.742 129.862 109.21 130.142 109.21C130.423 109.21 138.845 107.811 139.474 107.742C140.107 107.673 146.42 107.742 146.911 107.532C147.402 107.322 149.017 106.622 149.367 106.343C149.716 106.064 150.28 105.575 150 104.455C149.72 103.335 149.439 95.4384 149.439 94.7389C149.439 94.0394 150.844 88.5162 151.473 86.349C152.103 84.1817 153.296 77.8214 153.369 76.774C153.438 75.7266 152.597 73.2803 152.317 73.139C152.037 72.9976 148.246 70.9717 148.246 70.9717C148.246 70.9717 142.007 71.461 134.497 75.9332Z" fill="#E8E8E8" stroke="#263238" stroke-miterlimit="10" stroke-linecap="round" stroke-linejoin="round"/>
<path d="M129.236 105.64C129.236 105.64 131.692 105.22 132.114 104.872C132.536 104.524 136.255 93.6879 136.396 93.0573C136.538 92.4267 136.746 84.8087 136.746 84.8087" stroke="#263238" stroke-miterlimit="10" stroke-linecap="round" stroke-linejoin="round"/>
<path d="M136.673 89.5636L137.866 85.3016" stroke="#263238" stroke-miterlimit="10" stroke-linecap="round" stroke-linejoin="round"/>
<path d="M127.552 100.258C127.341 99.0697 127.832 96.0653 127.832 96.0653C127.832 96.0653 128.323 99.0009 129.236 100.19" stroke="#263238" stroke-miterlimit="10" stroke-linecap="round" stroke-linejoin="round"/>
<path d="M124.463 92.1513C124.463 92.1513 124.532 90.7523 124.321 90.1942C124.11 89.6361 124.041 89.2157 123.55 89.0055C123.059 88.7953 121.443 88.3749 121.025 88.027C120.603 87.679 119.41 86.5592 119.13 86.9796C118.849 87.4 118.289 88.0995 118.427 88.5887C118.569 89.078 119.13 90.0565 119.13 90.3355C119.13 90.6146 119.13 92.713 120.043 93.6915C120.956 94.67 122.287 95.0904 122.287 95.0904C122.287 95.0904 122.408 95.413 122.604 95.9131C123.03 94.8839 123.899 93.619 125.595 93.4704L124.463 92.1513Z" fill="white" stroke="#263238" stroke-miterlimit="10" stroke-linecap="round" stroke-linejoin="round"/>
<path d="M123.339 97.2541C123.339 97.2541 123.83 95.5072 125.864 94.8078" stroke="#263238" stroke-miterlimit="10" stroke-linecap="round" stroke-linejoin="round"/>
<path d="M139.482 107.739L146.569 105.64" stroke="#263238" stroke-miterlimit="10" stroke-linecap="round" stroke-linejoin="round"/>
<path d="M147.9 89.1939C147.9 89.1939 143.415 94.0249 139.776 96.6814" stroke="#263238" stroke-miterlimit="10" stroke-linecap="round" stroke-linejoin="round"/>
<path d="M145.594 92.8181C145.594 92.8181 142.199 96.1994 140.744 97.2867" stroke="#263238" stroke-miterlimit="10" stroke-linecap="round" stroke-linejoin="round"/>
</g>
<defs>
<clipPath id="clip0_2_557">
<rect width="172" height="164" fill="white"/>
</clipPath>
</defs>
</svg>
